<svg class="seekflow-logo" style="width: 64px; height: 64px;" viewBox="0 0 1024 1024" version="1.1" xmlns="http://www.w3.org/2000/svg">
<defs>
    <linearGradient id="primaryGradient" x1="0%" y1="0%" x2="100%" y2="100%">
    <stop offset="0%" style="stop-color:var(--primary-color);stop-opacity:1" />
    <stop offset="100%" style="stop-color:var(--secondary-color);stop-opacity:1" />
    </linearGradient>
</defs>
<path fill="url(#primaryGradient)" d="M471.04 102.4c53.9648 0 105.216 11.5712 151.3984 32.4608l-13.824 28.2624-66.1504 30.208A286.72 286.72 0 1 0 757.76 476.2112l40.6528-74.5984 30.464-19.8144c7.2192 29.184 10.9056 59.136 10.8544 89.1904a367.0016 367.0016 0 0 1-74.752 222.5664l-6.0416 7.7824 1.9456 1.6384 146.7392 146.5856a40.96 40.96 0 1 1-57.9584 57.9584l-144.7936-144.896-3.4304-3.7888-7.7824 6.0416A368.64 368.64 0 1 1 471.04 102.4zM552.96 300.08l35.2 64.8 74.4-5.6-56 54.4 13.6 73.6-69.6-36.8-69.6 36.8 13.6-73.6-56-54.4 74.4 5.6zM716.8 136.24l42.4 78.4 90.4-6.8-68.4 66.4 16.6 90-84.8-45-84.8 45 16.6-90-68.4-66.4 90.4 6.8z"></path>
</svg>