<svg class="icon" style="width: 1em;height: 1em;vertical-align: middle;overflow: hidden;" viewBox="0 0 1024 1024" version="1.1" xmlns="http://www.w3.org/2000/svg" p-id="10108">
  <defs>
    <linearGradient id="primaryGradient" x1="0%" y1="100%" x2="100%" y2="0%">
      <stop offset="0%" style="stop-color:#8b5cf6;stop-opacity:1" />
      <stop offset="100%" style="stop-color:#ec4899;stop-opacity:1" />
    </linearGradient>
  </defs>
  <path fill="url(#primaryGradient)" d="M471.04 102.4c53.9648 0 105.216 11.5712 151.3984 32.4608l-13.824 28.2624-66.1504 30.208A286.72 286.72 0 1 0 757.76 476.2112l40.6528-74.5984 30.464-19.8144c7.2192 29.184 10.9056 59.136 10.8544 89.1904a367.0016 367.0016 0 0 1-74.752 222.5664l-6.0416 7.7824 1.9456 1.6384 146.7392 146.5856a40.96 40.96 0 1 1-57.9584 57.9584l-144.7936-144.896-3.4304-3.7888-7.7824 6.0416A368.64 368.64 0 1 1 471.04 102.4z m81.92 286.72l28.928 52.992L634.88 471.04l-52.992 28.9792L552.96 552.96l-28.9792-52.9408L471.04 471.04l52.9408-28.928L552.96 389.12zM716.8 102.4l57.856 105.984L880.64 266.24l-105.984 57.9584L716.8 430.08l-57.9584-105.8816L552.96 266.24l105.8816-57.9072L716.8 102.4z" p-id="10109"></path>
</svg>